<svg xmlns="http://www.w3.org/2000/svg" width="1024" height="1024" viewBox="0 0 1024 1024" role="img" aria-label="Simple Bytro logo option 1">
  <defs>
    <linearGradient id="bg" x1="132" y1="96" x2="900" y2="928" gradientUnits="userSpaceOnUse">
      <stop offset="0" stop-color="#101827"/>
      <stop offset="1" stop-color="#07080B"/>
    </linearGradient>
    <linearGradient id="mark" x1="270" y1="260" x2="760" y2="760" gradientUnits="userSpaceOnUse">
      <stop offset="0" stop-color="#22D3EE"/>
      <stop offset="1" stop-color="#6366F1"/>
    </linearGradient>
    <filter id="shadow" x="-20%" y="-20%" width="140%" height="140%" color-interpolation-filters="sRGB">
      <feDropShadow dx="0" dy="34" stdDeviation="42" flood-color="#000000" flood-opacity="0.42"/>
    </filter>
  </defs>
  <rect width="1024" height="1024" fill="none"/>
  <g filter="url(#shadow)">
    <rect x="72" y="72" width="880" height="880" rx="214" fill="url(#bg)"/>
    <path d="M704 328C612 250 456 252 356 354C242 470 254 654 380 752C502 846 690 792 756 650" fill="none" stroke="#020617" stroke-opacity="0.8" stroke-width="126" stroke-linecap="round"/>
    <path d="M704 328C612 250 456 252 356 354C242 470 254 654 380 752C502 846 690 792 756 650" fill="none" stroke="url(#mark)" stroke-width="82" stroke-linecap="round"/>
    <circle cx="512" cy="512" r="98" fill="#09090B"/>
    <circle cx="512" cy="512" r="62" fill="#E0F2FE"/>
    <circle cx="512" cy="512" r="30" fill="#22D3EE"/>
  </g>
</svg>
