<svg xmlns="http://www.w3.org/2000/svg" width="1024" height="1024" viewBox="0 0 1024 1024" role="img" aria-label="Simple Bytro logo option 6">
  <defs>
    <linearGradient id="bg" x1="132" y1="96" x2="900" y2="928" gradientUnits="userSpaceOnUse">
      <stop offset="0" stop-color="#101827"/>
      <stop offset="1" stop-color="#07080B"/>
    </linearGradient>
    <linearGradient id="mark" x1="270" y1="360" x2="760" y2="666" gradientUnits="userSpaceOnUse">
      <stop offset="0" stop-color="#22D3EE"/>
      <stop offset="0.5" stop-color="#3B82F6"/>
      <stop offset="1" stop-color="#34D399"/>
    </linearGradient>
    <filter id="shadow" x="-20%" y="-20%" width="140%" height="140%" color-interpolation-filters="sRGB">
      <feDropShadow dx="0" dy="34" stdDeviation="42" flood-color="#000000" flood-opacity="0.42"/>
    </filter>
  </defs>
  <rect width="1024" height="1024" fill="none"/>
  <g filter="url(#shadow)">
    <rect x="72" y="72" width="880" height="880" rx="214" fill="url(#bg)"/>
    <path d="M274 548C344 390 486 350 594 420C662 464 706 466 750 426" fill="none" stroke="#020617" stroke-opacity="0.82" stroke-width="132" stroke-linecap="round"/>
    <path d="M274 548C344 390 486 350 594 420C662 464 706 466 750 426" fill="none" stroke="url(#mark)" stroke-width="88" stroke-linecap="round"/>
    <path d="M274 640C346 512 480 496 594 578C664 628 708 626 750 584" fill="none" stroke="#E0F2FE" stroke-opacity="0.86" stroke-width="50" stroke-linecap="round"/>
  </g>
</svg>
