<svg xmlns="http://www.w3.org/2000/svg" width="1024" height="1024" viewBox="0 0 1024 1024" role="img" aria-label="Bytro brand concept vault">
  <defs>
    <linearGradient id="bg" x1="150" y1="100" x2="875" y2="930" gradientUnits="userSpaceOnUse">
      <stop offset="0" stop-color="#111827"/>
      <stop offset="1" stop-color="#07080B"/>
    </linearGradient>
    <linearGradient id="gate" x1="286" y1="238" x2="750" y2="790" gradientUnits="userSpaceOnUse">
      <stop offset="0" stop-color="#A78BFA"/>
      <stop offset="0.44" stop-color="#3B82F6"/>
      <stop offset="1" stop-color="#22D3EE"/>
    </linearGradient>
    <filter id="shadow" x="-20%" y="-20%" width="140%" height="140%" color-interpolation-filters="sRGB">
      <feDropShadow dx="0" dy="34" stdDeviation="42" flood-color="#000000" flood-opacity="0.42"/>
    </filter>
    <filter id="glow" x="-35%" y="-35%" width="170%" height="170%" color-interpolation-filters="sRGB">
      <feDropShadow dx="0" dy="0" stdDeviation="22" flood-color="#8B5CF6" flood-opacity="0.38"/>
    </filter>
  </defs>
  <rect width="1024" height="1024" fill="none"/>
  <g filter="url(#shadow)">
    <rect x="72" y="72" width="880" height="880" rx="214" fill="url(#bg)"/>
    <rect x="96" y="96" width="832" height="832" rx="190" fill="none" stroke="#FFFFFF" stroke-opacity="0.08" stroke-width="3"/>
    <g filter="url(#glow)">
      <path d="M512 228C654 228 770 344 770 486C770 628 654 744 512 744C370 744 254 628 254 486C254 344 370 228 512 228Z" fill="#060A12" stroke="url(#gate)" stroke-width="42"/>
      <path d="M512 312C608 312 686 390 686 486C686 582 608 660 512 660C416 660 338 582 338 486C338 390 416 312 512 312Z" fill="none" stroke="url(#gate)" stroke-width="42"/>
      <path d="M512 228V744M254 486H770" stroke="#E0F2FE" stroke-opacity="0.8" stroke-width="32" stroke-linecap="round"/>
      <path d="M388 362L636 610M636 362L388 610" stroke="url(#gate)" stroke-width="30" stroke-linecap="round"/>
      <circle cx="512" cy="486" r="58" fill="#08090D" stroke="#E0F2FE" stroke-opacity="0.86" stroke-width="18"/>
      <circle cx="512" cy="486" r="18" fill="#67E8F9"/>
    </g>
  </g>
</svg>
