<svg xmlns="http://www.w3.org/2000/svg" width="1024" height="1024" viewBox="0 0 1024 1024" role="img" aria-label="Bytro brand concept beacon">
  <defs>
    <linearGradient id="bg" x1="150" y1="110" x2="870" y2="920" gradientUnits="userSpaceOnUse">
      <stop offset="0" stop-color="#121827"/>
      <stop offset="1" stop-color="#07080B"/>
    </linearGradient>
    <linearGradient id="core" x1="330" y1="220" x2="700" y2="820" gradientUnits="userSpaceOnUse">
      <stop offset="0" stop-color="#67E8F9"/>
      <stop offset="0.48" stop-color="#3B82F6"/>
      <stop offset="1" stop-color="#34D399"/>
    </linearGradient>
    <filter id="shadow" x="-20%" y="-20%" width="140%" height="140%" color-interpolation-filters="sRGB">
      <feDropShadow dx="0" dy="34" stdDeviation="42" flood-color="#000000" flood-opacity="0.42"/>
    </filter>
    <filter id="glow" x="-35%" y="-35%" width="170%" height="170%" color-interpolation-filters="sRGB">
      <feDropShadow dx="0" dy="0" stdDeviation="22" flood-color="#3B82F6" flood-opacity="0.42"/>
    </filter>
  </defs>
  <rect width="1024" height="1024" fill="none"/>
  <g filter="url(#shadow)">
    <rect x="72" y="72" width="880" height="880" rx="214" fill="url(#bg)"/>
    <rect x="96" y="96" width="832" height="832" rx="190" fill="none" stroke="#FFFFFF" stroke-opacity="0.08" stroke-width="3"/>
    <g filter="url(#glow)">
      <path d="M512 196L700 384L628 792H396L324 384Z" fill="#060A12" stroke="url(#core)" stroke-width="34" stroke-linejoin="round"/>
      <path d="M512 196L700 384L512 474L324 384Z" fill="#38BDF8"/>
      <path d="M700 384L628 792L512 474Z" fill="#2563EB"/>
      <path d="M396 792L324 384L512 474Z" fill="#06B6D4"/>
      <path d="M396 792H628L512 474Z" fill="#34D399"/>
      <path d="M512 304L604 402L512 450L420 402Z" fill="#08090D"/>
      <path d="M448 568H576M430 660H594" stroke="#E0F2FE" stroke-opacity="0.84" stroke-width="34" stroke-linecap="round"/>
    </g>
  </g>
</svg>
