<svg xmlns="http://www.w3.org/2000/svg" width="1024" height="1024" viewBox="0 0 1024 1024" role="img" aria-label="Bytro brand concept sigil">
  <defs>
    <linearGradient id="bg" x1="155" y1="105" x2="875" y2="925" gradientUnits="userSpaceOnUse">
      <stop offset="0" stop-color="#121827"/>
      <stop offset="1" stop-color="#07080B"/>
    </linearGradient>
    <linearGradient id="sigil" x1="340" y1="190" x2="700" y2="825" gradientUnits="userSpaceOnUse">
      <stop offset="0" stop-color="#67E8F9"/>
      <stop offset="0.36" stop-color="#3B82F6"/>
      <stop offset="0.72" stop-color="#8B5CF6"/>
      <stop offset="1" stop-color="#34D399"/>
    </linearGradient>
    <filter id="shadow" x="-20%" y="-20%" width="140%" height="140%" color-interpolation-filters="sRGB">
      <feDropShadow dx="0" dy="34" stdDeviation="42" flood-color="#000000" flood-opacity="0.42"/>
    </filter>
    <filter id="glow" x="-35%" y="-35%" width="170%" height="170%" color-interpolation-filters="sRGB">
      <feDropShadow dx="0" dy="0" stdDeviation="22" flood-color="#3B82F6" flood-opacity="0.42"/>
    </filter>
  </defs>
  <rect width="1024" height="1024" fill="none"/>
  <g filter="url(#shadow)">
    <rect x="72" y="72" width="880" height="880" rx="214" fill="url(#bg)"/>
    <rect x="96" y="96" width="832" height="832" rx="190" fill="none" stroke="#FFFFFF" stroke-opacity="0.08" stroke-width="3"/>
    <g filter="url(#glow)" fill="none" stroke-linecap="round" stroke-linejoin="round">
      <path d="M512 208L664 346L628 550L512 816L396 550L360 346Z" stroke="#020617" stroke-opacity="0.78" stroke-width="112"/>
      <path d="M512 208L664 346L628 550L512 816L396 550L360 346Z" stroke="url(#sigil)" stroke-width="72"/>
      <path d="M360 346L512 454L664 346" stroke="#E0F2FE" stroke-opacity="0.82" stroke-width="38"/>
      <path d="M396 550H628" stroke="#E0F2FE" stroke-opacity="0.82" stroke-width="38"/>
    </g>
    <circle cx="512" cy="454" r="56" fill="#08090D" stroke="#E0F2FE" stroke-opacity="0.86" stroke-width="16"/>
    <circle cx="512" cy="454" r="17" fill="#67E8F9"/>
  </g>
</svg>
