<svg xmlns="http://www.w3.org/2000/svg" width="1024" height="1024" viewBox="0 0 1024 1024" role="img" aria-label="Bytro companion concept crew">
  <defs>
    <linearGradient id="bg" x1="150" y1="100" x2="880" y2="930" gradientUnits="userSpaceOnUse">
      <stop offset="0" stop-color="#101827"/>
      <stop offset="1" stop-color="#07080B"/>
    </linearGradient>
    <linearGradient id="ring" x1="250" y1="260" x2="775" y2="760" gradientUnits="userSpaceOnUse">
      <stop offset="0" stop-color="#22D3EE"/>
      <stop offset="0.42" stop-color="#3B82F6"/>
      <stop offset="0.76" stop-color="#8B5CF6"/>
      <stop offset="1" stop-color="#34D399"/>
    </linearGradient>
    <filter id="shadow" x="-20%" y="-20%" width="140%" height="140%" color-interpolation-filters="sRGB">
      <feDropShadow dx="0" dy="34" stdDeviation="42" flood-color="#000000" flood-opacity="0.42"/>
    </filter>
    <filter id="glow" x="-40%" y="-40%" width="180%" height="180%" color-interpolation-filters="sRGB">
      <feDropShadow dx="0" dy="0" stdDeviation="18" flood-color="#06B6D4" flood-opacity="0.38"/>
    </filter>
  </defs>
  <rect width="1024" height="1024" fill="none"/>
  <g filter="url(#shadow)">
    <rect x="72" y="72" width="880" height="880" rx="214" fill="url(#bg)"/>
    <rect x="96" y="96" width="832" height="832" rx="190" fill="none" stroke="#FFFFFF" stroke-opacity="0.08" stroke-width="3"/>
    <g filter="url(#glow)" fill="none" stroke-linecap="round">
      <path d="M716 354C616 250 428 270 334 420C244 562 320 724 472 754C628 786 768 666 758 504" stroke="#020617" stroke-opacity="0.78" stroke-width="124"/>
      <path d="M716 354C616 250 428 270 334 420C244 562 320 724 472 754C628 786 768 666 758 504" stroke="url(#ring)" stroke-width="80"/>
    </g>
    <circle cx="512" cy="512" r="92" fill="#08090D" stroke="#E0F2FE" stroke-opacity="0.92" stroke-width="20"/>
    <circle cx="512" cy="512" r="34" fill="#67E8F9"/>
    <g stroke="#E0F2FE" stroke-opacity="0.92" stroke-width="14">
      <circle cx="716" cy="354" r="40" fill="#07111F"/>
      <circle cx="326" cy="420" r="40" fill="#07111F"/>
      <circle cx="472" cy="754" r="40" fill="#07111F"/>
      <circle cx="758" cy="504" r="40" fill="#07111F"/>
    </g>
    <circle cx="716" cy="354" r="12" fill="#34D399"/>
    <circle cx="326" cy="420" r="12" fill="#67E8F9"/>
    <circle cx="472" cy="754" r="12" fill="#8B5CF6"/>
    <circle cx="758" cy="504" r="12" fill="#60A5FA"/>
  </g>
</svg>
