<svg xmlns="http://www.w3.org/2000/svg" width="1024" height="1024" viewBox="0 0 1024 1024" role="img" aria-label="Bytro companion concept guide">
  <defs>
    <linearGradient id="bg" x1="150" y1="100" x2="880" y2="930" gradientUnits="userSpaceOnUse">
      <stop offset="0" stop-color="#101827"/>
      <stop offset="1" stop-color="#07080B"/>
    </linearGradient>
    <linearGradient id="loopA" x1="242" y1="280" x2="775" y2="742" gradientUnits="userSpaceOnUse">
      <stop offset="0" stop-color="#67E8F9"/>
      <stop offset="0.52" stop-color="#3B82F6"/>
      <stop offset="1" stop-color="#8B5CF6"/>
    </linearGradient>
    <linearGradient id="loopB" x1="766" y1="282" x2="268" y2="742" gradientUnits="userSpaceOnUse">
      <stop offset="0" stop-color="#34D399"/>
      <stop offset="0.48" stop-color="#22D3EE"/>
      <stop offset="1" stop-color="#3B82F6"/>
    </linearGradient>
    <filter id="shadow" x="-20%" y="-20%" width="140%" height="140%" color-interpolation-filters="sRGB">
      <feDropShadow dx="0" dy="34" stdDeviation="42" flood-color="#000000" flood-opacity="0.42"/>
    </filter>
    <filter id="glow" x="-40%" y="-40%" width="180%" height="180%" color-interpolation-filters="sRGB">
      <feDropShadow dx="0" dy="0" stdDeviation="20" flood-color="#3B82F6" flood-opacity="0.4"/>
    </filter>
  </defs>
  <rect width="1024" height="1024" fill="none"/>
  <g filter="url(#shadow)">
    <rect x="72" y="72" width="880" height="880" rx="214" fill="url(#bg)"/>
    <rect x="96" y="96" width="832" height="832" rx="190" fill="none" stroke="#FFFFFF" stroke-opacity="0.08" stroke-width="3"/>
    <g filter="url(#glow)" fill="none" stroke-linecap="round">
      <path d="M714 366C630 286 490 280 394 384C280 508 306 696 454 746C572 786 704 720 738 588" stroke="#020617" stroke-opacity="0.78" stroke-width="118"/>
      <path d="M714 366C630 286 490 280 394 384C280 508 306 696 454 746C572 786 704 720 738 588" stroke="url(#loopA)" stroke-width="74"/>
      <path d="M310 658C394 738 534 744 630 640C744 516 718 328 570 278C452 238 320 304 286 436" stroke="#020617" stroke-opacity="0.78" stroke-width="118"/>
      <path d="M310 658C394 738 534 744 630 640C744 516 718 328 570 278C452 238 320 304 286 436" stroke="url(#loopB)" stroke-width="74"/>
    </g>
    <path d="M512 404L610 578H414Z" fill="#08090D" stroke="#E0F2FE" stroke-opacity="0.92" stroke-width="18" stroke-linejoin="round"/>
    <circle cx="512" cy="512" r="34" fill="#67E8F9"/>
    <circle cx="714" cy="366" r="26" fill="#34D399"/>
    <circle cx="310" cy="658" r="26" fill="#8B5CF6"/>
  </g>
</svg>
