<svg xmlns="http://www.w3.org/2000/svg" width="1024" height="1024" viewBox="0 0 1024 1024" role="img" aria-label="Bytro companion line icon 3">
  <defs>
    <linearGradient id="bg" x1="132" y1="96" x2="900" y2="928" gradientUnits="userSpaceOnUse">
      <stop offset="0" stop-color="#101827"/>
      <stop offset="1" stop-color="#07080B"/>
    </linearGradient>
    <linearGradient id="mark" x1="286" y1="324" x2="738" y2="700" gradientUnits="userSpaceOnUse">
      <stop offset="0" stop-color="#22D3EE"/>
      <stop offset="0.5" stop-color="#67E8F9"/>
      <stop offset="1" stop-color="#34D399"/>
    </linearGradient>
    <filter id="shadow" x="-20%" y="-20%" width="140%" height="140%" color-interpolation-filters="sRGB">
      <feDropShadow dx="0" dy="34" stdDeviation="42" flood-color="#000000" flood-opacity="0.42"/>
    </filter>
  </defs>
  <rect width="1024" height="1024" fill="none"/>
  <g filter="url(#shadow)">
    <rect x="72" y="72" width="880" height="880" rx="214" fill="url(#bg)"/>
    <path d="M472 302C362 300 278 382 278 512C278 642 362 724 472 722" fill="none" stroke="#22D3EE" stroke-width="74" stroke-linecap="round"/>
    <path d="M552 302C662 300 746 382 746 512C746 642 662 724 552 722" fill="none" stroke="#6366F1" stroke-width="74" stroke-linecap="round"/>
    <path d="M352 528C414 458 490 458 552 528C596 578 650 578 704 528" fill="none" stroke="#07101C" stroke-opacity="0.92" stroke-width="96" stroke-linecap="round"/>
    <path d="M320 590C392 650 474 636 530 572C580 516 638 502 704 548" fill="none" stroke="#07101C" stroke-opacity="0.92" stroke-width="96" stroke-linecap="round"/>
    <path d="M352 528C414 458 490 458 552 528C596 578 650 578 704 528" fill="none" stroke="url(#mark)" stroke-width="48" stroke-linecap="round"/>
    <path d="M320 590C392 650 474 636 530 572C580 516 638 502 704 548" fill="none" stroke="url(#mark)" stroke-width="48" stroke-linecap="round"/>
    <circle cx="386" cy="424" r="22" fill="#07101C"/>
    <circle cx="638" cy="424" r="22" fill="#DDF5FF"/>
    <path d="M352 378C374 356 408 356 430 378" fill="none" stroke="#07101C" stroke-width="22" stroke-linecap="round"/>
    <path d="M602 374L638 338L674 374" fill="none" stroke="#DDF5FF" stroke-width="22" stroke-linecap="round" stroke-linejoin="round"/>
    <path d="M638 340V404" fill="none" stroke="#DDF5FF" stroke-width="22" stroke-linecap="round"/>
  </g>
</svg>
